<svg width="94" height="67" viewBox="0 0 94 67" fill="none" xmlns="http://www.w3.org/2000/svg">
<path d="M92.2827 28.1977L62.8993 19.7991C61.1817 19.308 59.7217 18.3059 58.7873 16.9773C56.2642 13.3905 52.256 11.1736 47.9253 10.8739L47.9194 0.999407C47.9191 0.446673 47.4711 -0.000327919 46.9188 1.80504e-07C46.3666 0.000326381 45.9191 0.447857 45.9194 1.00059L45.9253 10.875C41.5949 11.1799 37.5894 13.4016 35.0705 16.9914C34.1377 18.3211 32.6788 19.3248 30.9618 19.8181L1.58839 28.2515C0.510449 28.5607 -0.133494 29.5533 0.023414 30.6645C0.151024 31.5679 0.76721 32.2465 1.59602 32.4688L1.59139 32.4849L30.9748 40.8845C32.6919 41.3746 34.1519 42.3767 35.0863 43.7062C37.1054 46.5753 40.074 48.5794 43.3973 49.4216L43.4065 64.8703C43.4067 65.1798 43.5499 65.4708 43.7942 65.6601C43.9212 65.7586 45.0867 66.6193 46.9583 66.6181C48.8299 66.617 49.9944 65.755 50.1213 65.6563C50.3653 65.4667 50.5082 65.1756 50.508 64.866L50.4989 49.4174C53.8213 48.5712 56.7874 46.5634 58.8031 43.6912C59.7359 42.3616 61.1948 41.3578 62.9118 40.8655L92.2847 32.4311L92.2801 32.415C93.1086 32.1918 93.724 31.5124 93.8505 30.6089C94.0061 29.4975 93.361 28.5057 92.2827 28.1977ZM48.5077 64.2901C48.1743 64.4417 47.6388 64.6177 46.9571 64.6181C46.2701 64.6186 45.7378 64.4441 45.4061 64.2939L45.3975 49.7755C45.9104 49.8307 46.4268 49.8694 46.9484 49.8691C47.47 49.8688 47.9863 49.8295 48.4991 49.7737L48.5077 64.2901ZM62.3604 38.943C60.205 39.5615 58.3605 40.8399 57.1657 42.5428C54.8269 45.8752 51.0068 47.8667 46.9472 47.8691C42.8876 47.8715 39.0652 45.8845 36.7224 42.5559C35.5256 40.8534 33.6796 39.5772 31.5239 38.9623L19.0725 35.4028C25.9382 36.0837 35.0849 36.6135 46.9405 36.6064C58.7946 36.5994 67.9398 36.059 74.8044 35.3701L62.3604 38.943ZM91.6796 30.4969L91.5175 30.497L91.3642 30.5479C91.2426 30.589 78.8256 34.5875 46.9393 34.6064C15.0531 34.6253 2.63131 30.6415 2.5097 30.6005L2.35538 30.5498L2.19424 30.5499C2.13174 30.55 2.02725 30.55 2.00372 30.385C1.98067 30.219 2.08124 30.1906 2.1408 30.173L31.5137 21.7396C33.6686 21.1211 35.5131 19.8427 36.7079 18.1408C38.8529 15.0836 42.2474 13.1754 45.9265 12.875L45.927 13.8141C45.9273 14.3668 46.3754 14.8138 46.9276 14.8135C47.4799 14.8131 47.9273 14.3656 47.927 13.8129L47.9265 12.8739C51.6058 13.1699 55.0026 15.074 57.1513 18.1287C58.3481 19.8292 60.194 21.1054 62.3497 21.7213L91.7321 30.1199C91.7922 30.1375 91.8928 30.1657 91.8699 30.3318C91.8466 30.4968 91.7421 30.4969 91.6796 30.4969Z" fill="white"/>
<path d="M54.4385 24.0169C47.4589 27.1715 39.4703 24.0414 39.3897 24.0093C38.8769 23.8035 38.295 24.0519 38.0897 24.5647C37.884 25.0765 38.1319 25.6584 38.6437 25.8652C38.8791 25.9598 42.6427 27.4419 47.4059 27.4391C49.8736 27.4376 52.6102 27.0376 55.2619 25.8387C55.7651 25.6119 55.9889 25.0189 55.7616 24.5162C55.5337 24.0124 54.9408 23.7881 54.4385 24.0169Z" fill="white"/>
</svg>
