<svg fill="none" height="50" viewBox="0 0 81 50" width="81" xmlns="http://www.w3.org/2000/svg"><path d="m79.1536 30.5361h-.6914v-1.6972c0-.4862-.353-.8719-.8125-.9623v-6.1644c.4595-.0905.8125-.4764.8125-.9622v-2.0835c0-.0369-.0171-.0682-.021-.104h.7124c.5108 0 .9971-.2207 1.333-.6055.3369-.3847.4903-.8955.4219-1.4018l-.6475-4.8013c-.1181-.874-.873-1.5332-1.7548-1.5332h-.8565v-1.00805c1.3278-.36029 2.3125-1.56403 2.3125-3.00434v-3.25c0-1.63122-1.3271-2.95831-2.9583-2.95831h-73.08337c-1.63123 0-2.958317 1.32709-2.958317 2.95831v3.25c0 1.44031.984677 2.64405 2.312497 3.00434v1.00805h-.85644c-.88233 0-1.636721.6592-1.755373 1.5337l-.6469728 4.8008c-.0683594.5058.0854488 1.0171.4213868 1.4018.336426.3848.822269.6055 1.333499.6055h.7124c-.00391.0358-.021.0671-.021.104v2.0835c0 .4857.35334.8717.8125.9622v6.1645c-.45916.0905-.8125.476-.8125.9622v1.6972h-.6914c-.51075 0-.996585.2207-1.333011.6055-.336426.3848-.4902342.8965-.4218748 1.4023l.6474608 4.8018c.118164.8731.872555 1.5322 1.754885 1.5322h.85644v1.0084c-1.32782.3603-2.312497 1.564-2.312497 3.0043v3.25c0 1.6313 1.327087 2.9583 2.958317 2.9583h73.08337c1.6312 0 2.9583-1.327 2.9583-2.9583v-3.25c0-1.4403-.9847-2.644-2.3125-3.0043v-1.0084h.8565c.8818 0 1.6357-.6592 1.7548-1.5332l.6475-4.8008c.0684-.5058-.085-1.0175-.4219-1.4023-.3359-.3848-.8222-.6055-1.333-.6055zm-18.6594 9.2295c-1.0723 0-2.1539.2399-3.3367.7209v-2.6152c.8523-.0349 1.5706-.6775 1.6836-1.5266l.6475-4.8008c.0683-.5058-.085-1.0175-.4219-1.4023-.3359-.3848-.8223-.6055-1.333-.6055h-.5898l.0058-1.1093c.0029-.5518-.4424-1.002-.9951-1.0049-.002 0-.0029 0-.0049 0-.5498 0-.9971.4443-1 .9951l-.0058 1.1191h-.5635c-.5108 0-.9971.2207-1.333.6055-.3369.3848-.4903.8965-.4219 1.4023l.6475 4.7989c.113.8513.8319 1.4941 1.6845 1.5286v2.6149c-1.1826-.4809-2.2641-.7207-3.3362-.7207h-22.7182c-1.0675 0-2.1443.2374-3.3211.7141v-2.6083c.8509-.0345 1.5692-.6764 1.6846-1.5267l.6475-4.8017c.0678-.5059-.086-1.0176-.4229-1.4014-.3359-.3848-.8218-.6055-1.3325-.6055h-.5894l.0054-1.1093c.0025-.5528-.4429-1.002-.9951-1.0049-.0015 0-.0034 0-.0049 0-.5503 0-.9971.4443-1 .9951l-.0055 1.1191h-.5638c-.5108 0-.9971.2207-1.333.6055-.3365.3848-.4903.8965-.4219 1.4023l.6475 4.8018c.1149.8494.8332 1.4912 1.684 1.5257v2.6216c-1.1886-.485-2.275-.7274-3.3518-.7274h-15.15549v-30.43229h15.15549c1.0724 0 2.1543-.23999 3.3372-.72101v2.6149c-.8508.0345-1.5692.6764-1.6846 1.5272l-.6474 4.8018c-.0679.5063.0859 1.017.4223 1.4013.3364.3848.8223.605 1.333.605h.5767v1.1875c0 .5522.4477 1 1 1 .5522 0 1-.4478 1-1v-1.1875h.5766c.5113 0 .9971-.2207 1.3335-.6055.336-.3847.4898-.8955.4214-1.4018l-.6474-4.8013c-.115-.8503-.8333-1.4922-1.6841-1.5267v-2.61435c1.1825.48066 2.2638.72046 3.3357.72046h22.7182c1.0674 0 2.144-.23724 3.3206-.7138v2.60779c-.8523.035-1.5706.6775-1.6836 1.5271l-.6475 4.8008c-.0683.5063.085 1.0171.4219 1.4018.336.3848.8223.6055 1.333.6055h.5762v1.1875c0 .5522.4473 1 1 1s1-.4478 1-1v-1.1875h.5771c.5108 0 .9971-.2207 1.3331-.6055.3369-.3847.4902-.8955.4218-1.4018l-.6474-4.7989c-.1131-.8517-.8319-1.4946-1.6846-1.5291v-2.62155c1.1888.48523 2.2754.72766 3.3523.72766h15.1555v30.43229zm-3.0232-8.2295-.585 4.3418h-1.458l-.5849-4.3418zm-31.374 0-.586 4.3418h-1.458l-.5854-4.3418zm-2.6446-13.9736.586-4.3418h1.458l.5854 4.3418zm31.376 0 .585-4.3418h1.458l.585 4.3418zm23.4776-5.3418.5849 4.3418h-1.2412v-4.3418zm-75.34379-9.26239c0-.52923.42908-.95831.95832-.95831h73.08337c.5293 0 .9583.42908.9583.95831v3.25c0 .62134-.5037 1.125-1.125 1.125h-16.343c-1.1688 0-2.2766-.38458-3.3271-.89673-.0079-.0039-.0172-.00518-.0252-.00897v-1.76111c0-.55224-.4473-1-1-1s-1 .44776-1 1v1.77295c-1.0486.51068-2.1542.89386-3.3206.89386h-22.7182c-1.1687 0-2.2765-.38458-3.3271-.89679-.0027-.00134-.0059-.00171-.0086-.00305v-1.76697c0-.55224-.4478-1-1-1-.5523 0-1 .44776-1 1v1.76648c-.0032.00153-.0069.00208-.0101.0036-1.0505.51215-2.1583.89673-3.3271.89673h-16.34299c-.62133 0-1.125-.50366-1.125-1.125zm-.34375 9.26239h.65625v4.3418h-1.24169zm0 24.6572-.58544-4.3418h1.24169v4.3418zm75.34374 9.2627c0 .5293-.429.9583-.9583.9583h-73.08337c-.52924 0-.95832-.429-.95832-.9583v-3.25c0-.6213.50367-1.125 1.125-1.125h16.34299c1.1688 0 2.2766.3846 3.3271.8968.0078.0037.0169.005.0247.0087v1.7615c0 .5528.4478 1 1 1 .5523 0 1-.4472 1-1v-1.7729c1.0487-.5107 2.1546-.8941 3.3211-.8941h22.7182c1.1687 0 2.2766.3847 3.3271.8968.0029.0014.0063.0018.0091.0032v1.767c0 .5528.4473 1 1 1 .5528 0 1-.4472 1-1v-1.7668c.0031-.0015.0066-.002.0096-.0034 1.0505-.5122 2.1583-.8968 3.3271-.8968h16.343c.6213 0 1.125.5037 1.125 1.125zm.3438-9.2627h-.6563v-4.3418h1.2412z" fill="#f7f7f7"/></svg>